<svg aria-roledescription="er" role="graphics-document document" viewBox="0 0 714.8582763671875 456" style="max-width: 714.858px; background-color: white;" xmlns:xlink="http://www.w3.org/1999/xlink" xmlns="http://www.w3.org/2000/svg" width="100%" id="my-svg"><style>#my-svg{font-family:"trebuchet ms",verdana,arial,sans-serif;font-size:16px;fill:#000000;}#my-svg .error-icon{fill:#552222;}#my-svg .error-text{fill:#552222;stroke:#552222;}#my-svg .edge-thickness-normal{stroke-width:2px;}#my-svg .edge-thickness-thick{stroke-width:3.5px;}#my-svg .edge-pattern-solid{stroke-dasharray:0;}#my-svg .edge-pattern-dashed{stroke-dasharray:3;}#my-svg .edge-pattern-dotted{stroke-dasharray:2;}#my-svg .marker{fill:#000000;stroke:#000000;}#my-svg .marker.cross{stroke:#000000;}#my-svg svg{font-family:"trebuchet ms",verdana,arial,sans-serif;font-size:16px;}#my-svg .entityBox{fill:#cde498;stroke:#13540c;}#my-svg .attributeBoxOdd{fill:#ffffff;stroke:#13540c;}#my-svg .attributeBoxEven{fill:#f2f2f2;stroke:#13540c;}#my-svg .relationshipLabelBox{fill:hsl(78.1578947368, 58.4615384615%, 84.5098039216%);opacity:0.7;background-color:hsl(78.1578947368, 58.4615384615%, 84.5098039216%);}#my-svg .relationshipLabelBox rect{opacity:0.5;}#my-svg .relationshipLine{stroke:#000000;}#my-svg .entityTitleText{text-anchor:middle;font-size:18px;fill:#000000;}#my-svg #MD_PARENT_START{fill:#f5f5f5!important;stroke:#000000!important;stroke-width:1;}#my-svg #MD_PARENT_END{fill:#f5f5f5!important;stroke:#000000!important;stroke-width:1;}#my-svg :root{--mermaid-font-family:"trebuchet ms",verdana,arial,sans-serif;}</style><g/><defs><marker orient="auto" markerHeight="240" markerWidth="190" refY="7" refX="0" id="MD_PARENT_START"><path d="M 18,7 L9,13 L1,7 L9,1 Z"/></marker></defs><defs><marker orient="auto" markerHeight="28" markerWidth="20" refY="7" refX="19" id="MD_PARENT_END"><path d="M 18,7 L9,13 L1,7 L9,1 Z"/></marker></defs><defs><marker orient="auto" markerHeight="18" markerWidth="18" refY="9" refX="0" id="ONLY_ONE_START"><path d="M9,0 L9,18 M15,0 L15,18" fill="none" stroke="gray"/></marker></defs><defs><marker orient="auto" markerHeight="18" markerWidth="18" refY="9" refX="18" id="ONLY_ONE_END"><path d="M3,0 L3,18 M9,0 L9,18" fill="none" stroke="gray"/></marker></defs><defs><marker orient="auto" markerHeight="18" markerWidth="30" refY="9" refX="0" id="ZERO_OR_ONE_START"><circle r="6" cy="9" cx="21" fill="white" stroke="gray"/><path d="M9,0 L9,18" fill="none" stroke="gray"/></marker></defs><defs><marker orient="auto" markerHeight="18" markerWidth="30" refY="9" refX="30" id="ZERO_OR_ONE_END"><circle r="6" cy="9" cx="9" fill="white" stroke="gray"/><path d="M21,0 L21,18" fill="none" stroke="gray"/></marker></defs><defs><marker orient="auto" markerHeight="36" markerWidth="45" refY="18" refX="18" id="ONE_OR_MORE_START"><path d="M0,18 Q 18,0 36,18 Q 18,36 0,18 M42,9 L42,27" fill="none" stroke="gray"/></marker></defs><defs><marker orient="auto" markerHeight="36" markerWidth="45" refY="18" refX="27" id="ONE_OR_MORE_END"><path d="M3,9 L3,27 M9,18 Q27,0 45,18 Q27,36 9,18" fill="none" stroke="gray"/></marker></defs><defs><marker orient="auto" markerHeight="36" markerWidth="57" refY="18" refX="18" id="ZERO_OR_MORE_START"><circle r="6" cy="18" cx="48" fill="white" stroke="gray"/><path d="M0,18 Q18,0 36,18 Q18,36 0,18" fill="none" stroke="gray"/></marker></defs><defs><marker orient="auto" markerHeight="36" markerWidth="57" refY="18" refX="39" id="ZERO_OR_MORE_END"><circle r="6" cy="18" cx="9" fill="white" stroke="gray"/><path d="M21,18 Q39,0 57,18 Q39,36 21,18" fill="none" stroke="gray"/></marker></defs><path style="stroke: gray; fill: none;" marker-start="url(#ZERO_OR_ONE_START)" marker-end="url(#ONLY_ONE_END)" d="M378.0781135559082,150.33518566888927L326.73176129659015,170.6126547240744C275.38540903727215,190.8901237792595,172.69270451863608,231.44506188962976,121.34635225931804,263.8891976114815C70,296.3333333333333,70,320.6666666666667,70,332.8333333333333L70,345" class="er relationshipLine"/><path style="stroke: gray; fill: none;" marker-start="url(#ZERO_OR_MORE_START)" marker-end="url(#ZERO_OR_MORE_END)" d="M378.0781135559082,170.9164772425751L353.0072161356608,187.76373103547925C327.9363187154134,204.61098482838338,277.79452387491864,238.3054924141917,259.23425395466455,267.2360795404292C240.67398403441052,296.1666666666667,253.69523903439722,320.3333333333333,260.20586653439057,332.4166666666667L266.7164940343839,344.5" class="er relationshipLine"/><path style="stroke: gray; fill: none;" marker-start="url(#ZERO_OR_MORE_START)" marker-end="url(#ZERO_OR_MORE_END)" d="M440.9527573743403,222L440.01154082342487,230.33333333333334C439.0703242725094,238.66666666666666,437.18789117067854,255.33333333333334,449.7793029970417,273.31994157579214C462.37071482340497,291.30654981825086,489.4359715779622,310.6130996365018,502.9685999552409,320.26637454562723L516.5012283325195,329.91964945475263" class="er relationshipLine"/><path style="stroke: gray; fill: none;" marker-start="url(#ZERO_OR_MORE_START)" marker-end="url(#ZERO_OR_MORE_END)" d="M507.8401745928834,222L512.4177218388774,230.33333333333334C516.9952690848714,238.66666666666666,526.1503635768596,255.33333333333334,534.6219918197384,272C543.0936200626171,288.6666666666667,550.8817820563867,305.3333333333333,554.7758630532713,313.6666666666667L558.6699440501561,322" class="er relationshipLine"/><path style="stroke: gray; fill: none;" marker-start="url(#ZERO_OR_ONE_START)" marker-end="url(#ONLY_ONE_END)" d="M611.9409720875392,322L615.835053084424,313.6666666666667C619.7291340813086,305.3333333333333,627.5172960750782,288.6666666666667,613.3008824583154,265.3852213144251C599.0844688415527,242.10377596218356,562.8634796142578,212.2075519243671,544.7529850006104,197.2594399054589L526.6424903869629,182.31132788655066" class="er relationshipLine"/><path style="stroke: gray; fill: none;" marker-start="url(#ZERO_OR_ONE_START)" marker-end="url(#ONLY_ONE_END)" d="M654.1096878051758,329.91964945475263L667.6423161824545,320.26637454562723C681.174944559733,310.6130996365018,708.2402013142904,291.30654981825086,686.9956684112549,263.09366630596736C665.7511355082194,234.88078279368384,596.1968129475912,197.7615655873677,561.419651667277,179.20195698420966L526.6424903869629,160.64234838105156" class="er relationshipLine"/><path style="stroke: gray; fill: none;" marker-start="url(#ZERO_OR_ONE_START)" marker-end="url(#ONLY_ONE_END)" d="M301.4269533959505,344.5L307.07337084143336,332.4166666666667C312.7197882869162,320.3333333333333,324.01262317788195,296.1666666666667,336.7878165378749,274.88725799631584C349.56300989786786,253.60784932596496,363.820561726888,235.21569865192996,370.94933764139813,226.01962331491245L378.0781135559082,216.82354797789492" class="er relationshipLine"/><g transform="translate(20,345 )" id="entity-Role-8dbdbbc4-0419-5464-aae6-f142fb2ece67"><rect height="68" width="100" y="0" x="0" class="er entityBox"/><text style="dominant-baseline: middle; text-anchor: middle; font-size: 12px;" transform="translate(50,12)" y="0" x="0" id="text-entity-Role-8dbdbbc4-0419-5464-aae6-f142fb2ece67" class="er entityLabel">Role</text><rect height="22" width="50" y="24" x="0" class="er attributeBoxOdd"/><text style="dominant-baseline: middle; font-size: 10.2px;" transform="translate(5,35)" y="0" x="0" id="text-entity-Role-8dbdbbc4-0419-5464-aae6-f142fb2ece67-attr-1-type" class="er entityLabel">ADMIN</text><rect height="22" width="50" y="24" x="50" class="er attributeBoxOdd"/><text style="dominant-baseline: middle; font-size: 10.2px;" transform="translate(55,35)" y="0" x="0" id="text-entity-Role-8dbdbbc4-0419-5464-aae6-f142fb2ece67-attr-1-name" class="er entityLabel">ADMIN</text><rect height="22" width="50" y="46" x="0" class="er attributeBoxEven"/><text style="dominant-baseline: middle; font-size: 10.2px;" transform="translate(5,57)" y="0" x="0" id="text-entity-Role-8dbdbbc4-0419-5464-aae6-f142fb2ece67-attr-2-type" class="er entityLabel">USER</text><rect height="22" width="50" y="46" x="50" class="er attributeBoxEven"/><text style="dominant-baseline: middle; font-size: 10.2px;" transform="translate(55,57)" y="0" x="0" id="text-entity-Role-8dbdbbc4-0419-5464-aae6-f142fb2ece67-attr-2-name" class="er entityLabel">USER</text></g><g transform="translate(378.0781135559082,20 )" id="entity-User-818c511a-4a32-5484-ba70-875d765a9175"><rect height="202" width="148.5643768310547" y="0" x="0" class="er entityBox"/><text style="dominant-baseline: middle; text-anchor: middle; font-size: 12px;" transform="translate(74.28218841552734,12)" y="0" x="0" id="text-entity-User-818c511a-4a32-5484-ba70-875d765a9175" class="er entityLabel">User</text><rect height="23" width="37.39605712890625" y="24" x="0" class="er attributeBoxOdd"/><text style="dominant-baseline: middle; font-size: 10.2px;" transform="translate(5,35.5)" y="0" x="0" id="text-entity-User-818c511a-4a32-5484-ba70-875d765a9175-attr-1-type" class="er entityLabel">Int</text><rect height="23" width="88.59019470214844" y="24" x="37.39605712890625" class="er attributeBoxOdd"/><text style="dominant-baseline: middle; font-size: 10.2px;" transform="translate(42.39605712890625,35.5)" y="0" x="0" id="text-entity-User-818c511a-4a32-5484-ba70-875d765a9175-attr-1-name" class="er entityLabel">id</text><rect height="23" width="22.578125" y="24" x="125.98625183105469" class="er attributeBoxOdd"/><text style="dominant-baseline: middle; font-size: 10.2px;" transform="translate(130.9862518310547,35.5)" y="0" x="0" id="text-entity-User-818c511a-4a32-5484-ba70-875d765a9175-attr-1-comment" class="er entityLabel">🗝️</text><rect height="22" width="37.39605712890625" y="47" x="0" class="er attributeBoxEven"/><text style="dominant-baseline: middle; font-size: 10.2px;" transform="translate(5,58)" y="0" x="0" id="text-entity-User-818c511a-4a32-5484-ba70-875d765a9175-attr-2-type" class="er entityLabel">String</text><rect height="22" width="88.59019470214844" y="47" x="37.39605712890625" class="er attributeBoxEven"/><text style="dominant-baseline: middle; font-size: 10.2px;" transform="translate(42.39605712890625,58)" y="0" x="0" id="text-entity-User-818c511a-4a32-5484-ba70-875d765a9175-attr-2-name" class="er entityLabel">username</text><rect height="22" width="22.578125" y="47" x="125.98625183105469" class="er attributeBoxEven"/><text style="dominant-baseline: middle; font-size: 10.2px;" transform="translate(130.9862518310547,58)" y="0" x="0" id="text-entity-User-818c511a-4a32-5484-ba70-875d765a9175-attr-2-comment" class="er entityLabel"/><rect height="22" width="37.39605712890625" y="69" x="0" class="er attributeBoxOdd"/><text style="dominant-baseline: middle; font-size: 10.2px;" transform="translate(5,80)" y="0" x="0" id="text-entity-User-818c511a-4a32-5484-ba70-875d765a9175-attr-3-type" class="er entityLabel">String</text><rect height="22" width="88.59019470214844" y="69" x="37.39605712890625" class="er attributeBoxOdd"/><text style="dominant-baseline: middle; font-size: 10.2px;" transform="translate(42.39605712890625,80)" y="0" x="0" id="text-entity-User-818c511a-4a32-5484-ba70-875d765a9175-attr-3-name" class="er entityLabel">email</text><rect height="22" width="22.578125" y="69" x="125.98625183105469" class="er attributeBoxOdd"/><text style="dominant-baseline: middle; font-size: 10.2px;" transform="translate(130.9862518310547,80)" y="0" x="0" id="text-entity-User-818c511a-4a32-5484-ba70-875d765a9175-attr-3-comment" class="er entityLabel"/><rect height="22" width="37.39605712890625" y="91" x="0" class="er attributeBoxEven"/><text style="dominant-baseline: middle; font-size: 10.2px;" transform="translate(5,102)" y="0" x="0" id="text-entity-User-818c511a-4a32-5484-ba70-875d765a9175-attr-4-type" class="er entityLabel">String</text><rect height="22" width="88.59019470214844" y="91" x="37.39605712890625" class="er attributeBoxEven"/><text style="dominant-baseline: middle; font-size: 10.2px;" transform="translate(42.39605712890625,102)" y="0" x="0" id="text-entity-User-818c511a-4a32-5484-ba70-875d765a9175-attr-4-name" class="er entityLabel">password</text><rect height="22" width="22.578125" y="91" x="125.98625183105469" class="er attributeBoxEven"/><text style="dominant-baseline: middle; font-size: 10.2px;" transform="translate(130.9862518310547,102)" y="0" x="0" id="text-entity-User-818c511a-4a32-5484-ba70-875d765a9175-attr-4-comment" class="er entityLabel"/><rect height="22" width="37.39605712890625" y="113" x="0" class="er attributeBoxOdd"/><text style="dominant-baseline: middle; font-size: 10.2px;" transform="translate(5,124)" y="0" x="0" id="text-entity-User-818c511a-4a32-5484-ba70-875d765a9175-attr-5-type" class="er entityLabel">Float</text><rect height="22" width="88.59019470214844" y="113" x="37.39605712890625" class="er attributeBoxOdd"/><text style="dominant-baseline: middle; font-size: 10.2px;" transform="translate(42.39605712890625,124)" y="0" x="0" id="text-entity-User-818c511a-4a32-5484-ba70-875d765a9175-attr-5-name" class="er entityLabel">balance</text><rect height="22" width="22.578125" y="113" x="125.98625183105469" class="er attributeBoxOdd"/><text style="dominant-baseline: middle; font-size: 10.2px;" transform="translate(130.9862518310547,124)" y="0" x="0" id="text-entity-User-818c511a-4a32-5484-ba70-875d765a9175-attr-5-comment" class="er entityLabel"/><rect height="22" width="37.39605712890625" y="135" x="0" class="er attributeBoxEven"/><text style="dominant-baseline: middle; font-size: 10.2px;" transform="translate(5,146)" y="0" x="0" id="text-entity-User-818c511a-4a32-5484-ba70-875d765a9175-attr-6-type" class="er entityLabel">String</text><rect height="22" width="88.59019470214844" y="135" x="37.39605712890625" class="er attributeBoxEven"/><text style="dominant-baseline: middle; font-size: 10.2px;" transform="translate(42.39605712890625,146)" y="0" x="0" id="text-entity-User-818c511a-4a32-5484-ba70-875d765a9175-attr-6-name" class="er entityLabel">phoneNumber</text><rect height="22" width="22.578125" y="135" x="125.98625183105469" class="er attributeBoxEven"/><text style="dominant-baseline: middle; font-size: 10.2px;" transform="translate(130.9862518310547,146)" y="0" x="0" id="text-entity-User-818c511a-4a32-5484-ba70-875d765a9175-attr-6-comment" class="er entityLabel"/><rect height="23" width="37.39605712890625" y="157" x="0" class="er attributeBoxOdd"/><text style="dominant-baseline: middle; font-size: 10.2px;" transform="translate(5,168.5)" y="0" x="0" id="text-entity-User-818c511a-4a32-5484-ba70-875d765a9175-attr-7-type" class="er entityLabel">String</text><rect height="23" width="88.59019470214844" y="157" x="37.39605712890625" class="er attributeBoxOdd"/><text style="dominant-baseline: middle; font-size: 10.2px;" transform="translate(42.39605712890625,168.5)" y="0" x="0" id="text-entity-User-818c511a-4a32-5484-ba70-875d765a9175-attr-7-name" class="er entityLabel">emailVerification</text><rect height="23" width="22.578125" y="157" x="125.98625183105469" class="er attributeBoxOdd"/><text style="dominant-baseline: middle; font-size: 10.2px;" transform="translate(130.9862518310547,168.5)" y="0" x="0" id="text-entity-User-818c511a-4a32-5484-ba70-875d765a9175-attr-7-comment" class="er entityLabel">❓</text><rect height="22" width="37.39605712890625" y="180" x="0" class="er attributeBoxEven"/><text style="dominant-baseline: middle; font-size: 10.2px;" transform="translate(5,191)" y="0" x="0" id="text-entity-User-818c511a-4a32-5484-ba70-875d765a9175-attr-8-type" class="er entityLabel">Role</text><rect height="22" width="88.59019470214844" y="180" x="37.39605712890625" class="er attributeBoxEven"/><text style="dominant-baseline: middle; font-size: 10.2px;" transform="translate(42.39605712890625,191)" y="0" x="0" id="text-entity-User-818c511a-4a32-5484-ba70-875d765a9175-attr-8-name" class="er entityLabel">role</text><rect height="22" width="22.578125" y="180" x="125.98625183105469" class="er attributeBoxEven"/><text style="dominant-baseline: middle; font-size: 10.2px;" transform="translate(130.9862518310547,191)" y="0" x="0" id="text-entity-User-818c511a-4a32-5484-ba70-875d765a9175-attr-8-comment" class="er entityLabel"/></g><g transform="translate(516.5012283325195,322 )" id="entity-Transaction-7f4cb715-d743-519d-9786-b0e2ee68e3b7"><rect height="114" width="137.60845947265625" y="0" x="0" class="er entityBox"/><text style="dominant-baseline: middle; text-anchor: middle; font-size: 12px;" transform="translate(68.80422973632812,12)" y="0" x="0" id="text-entity-Transaction-7f4cb715-d743-519d-9786-b0e2ee68e3b7" class="er entityLabel">Transaction</text><rect height="23" width="54.095550537109375" y="24" x="0" class="er attributeBoxOdd"/><text style="dominant-baseline: middle; font-size: 10.2px;" transform="translate(5,35.5)" y="0" x="0" id="text-entity-Transaction-7f4cb715-d743-519d-9786-b0e2ee68e3b7-attr-1-type" class="er entityLabel">Int</text><rect height="23" width="60.934783935546875" y="24" x="54.095550537109375" class="er attributeBoxOdd"/><text style="dominant-baseline: middle; font-size: 10.2px;" transform="translate(59.095550537109375,35.5)" y="0" x="0" id="text-entity-Transaction-7f4cb715-d743-519d-9786-b0e2ee68e3b7-attr-1-name" class="er entityLabel">id</text><rect height="23" width="22.578125" y="24" x="115.03033447265625" class="er attributeBoxOdd"/><text style="dominant-baseline: middle; font-size: 10.2px;" transform="translate(120.03033447265625,35.5)" y="0" x="0" id="text-entity-Transaction-7f4cb715-d743-519d-9786-b0e2ee68e3b7-attr-1-comment" class="er entityLabel">🗝️</text><rect height="22" width="54.095550537109375" y="47" x="0" class="er attributeBoxEven"/><text style="dominant-baseline: middle; font-size: 10.2px;" transform="translate(5,58)" y="0" x="0" id="text-entity-Transaction-7f4cb715-d743-519d-9786-b0e2ee68e3b7-attr-2-type" class="er entityLabel">Float</text><rect height="22" width="60.934783935546875" y="47" x="54.095550537109375" class="er attributeBoxEven"/><text style="dominant-baseline: middle; font-size: 10.2px;" transform="translate(59.095550537109375,58)" y="0" x="0" id="text-entity-Transaction-7f4cb715-d743-519d-9786-b0e2ee68e3b7-attr-2-name" class="er entityLabel">amount</text><rect height="22" width="22.578125" y="47" x="115.03033447265625" class="er attributeBoxEven"/><text style="dominant-baseline: middle; font-size: 10.2px;" transform="translate(120.03033447265625,58)" y="0" x="0" id="text-entity-Transaction-7f4cb715-d743-519d-9786-b0e2ee68e3b7-attr-2-comment" class="er entityLabel"/><rect height="23" width="54.095550537109375" y="69" x="0" class="er attributeBoxOdd"/><text style="dominant-baseline: middle; font-size: 10.2px;" transform="translate(5,80.5)" y="0" x="0" id="text-entity-Transaction-7f4cb715-d743-519d-9786-b0e2ee68e3b7-attr-3-type" class="er entityLabel">String</text><rect height="23" width="60.934783935546875" y="69" x="54.095550537109375" class="er attributeBoxOdd"/><text style="dominant-baseline: middle; font-size: 10.2px;" transform="translate(59.095550537109375,80.5)" y="0" x="0" id="text-entity-Transaction-7f4cb715-d743-519d-9786-b0e2ee68e3b7-attr-3-name" class="er entityLabel">notes</text><rect height="23" width="22.578125" y="69" x="115.03033447265625" class="er attributeBoxOdd"/><text style="dominant-baseline: middle; font-size: 10.2px;" transform="translate(120.03033447265625,80.5)" y="0" x="0" id="text-entity-Transaction-7f4cb715-d743-519d-9786-b0e2ee68e3b7-attr-3-comment" class="er entityLabel">❓</text><rect height="22" width="54.095550537109375" y="92" x="0" class="er attributeBoxEven"/><text style="dominant-baseline: middle; font-size: 10.2px;" transform="translate(5,103)" y="0" x="0" id="text-entity-Transaction-7f4cb715-d743-519d-9786-b0e2ee68e3b7-attr-4-type" class="er entityLabel">DateTime</text><rect height="22" width="60.934783935546875" y="92" x="54.095550537109375" class="er attributeBoxEven"/><text style="dominant-baseline: middle; font-size: 10.2px;" transform="translate(59.095550537109375,103)" y="0" x="0" id="text-entity-Transaction-7f4cb715-d743-519d-9786-b0e2ee68e3b7-attr-4-name" class="er entityLabel">created_at</text><rect height="22" width="22.578125" y="92" x="115.03033447265625" class="er attributeBoxEven"/><text style="dominant-baseline: middle; font-size: 10.2px;" transform="translate(120.03033447265625,103)" y="0" x="0" id="text-entity-Transaction-7f4cb715-d743-519d-9786-b0e2ee68e3b7-attr-4-comment" class="er entityLabel"/></g><g transform="translate(220,344.5 )" id="entity-tokens-846c42f8-5486-59dd-b10e-2fc6a80b5c59"><rect height="69" width="130.6109161376953" y="0" x="0" class="er entityBox"/><text style="dominant-baseline: middle; text-anchor: middle; font-size: 12px;" transform="translate(65.30545806884766,12)" y="0" x="0" id="text-entity-tokens-846c42f8-5486-59dd-b10e-2fc6a80b5c59" class="er entityLabel">tokens</text><rect height="23" width="54.095550537109375" y="24" x="0" class="er attributeBoxOdd"/><text style="dominant-baseline: middle; font-size: 10.2px;" transform="translate(5,35.5)" y="0" x="0" id="text-entity-tokens-846c42f8-5486-59dd-b10e-2fc6a80b5c59-attr-1-type" class="er entityLabel">Int</text><rect height="23" width="53.93724060058594" y="24" x="54.095550537109375" class="er attributeBoxOdd"/><text style="dominant-baseline: middle; font-size: 10.2px;" transform="translate(59.095550537109375,35.5)" y="0" x="0" id="text-entity-tokens-846c42f8-5486-59dd-b10e-2fc6a80b5c59-attr-1-name" class="er entityLabel">id</text><rect height="23" width="22.578125" y="24" x="108.03279113769531" class="er attributeBoxOdd"/><text style="dominant-baseline: middle; font-size: 10.2px;" transform="translate(113.03279113769531,35.5)" y="0" x="0" id="text-entity-tokens-846c42f8-5486-59dd-b10e-2fc6a80b5c59-attr-1-comment" class="er entityLabel">🗝️</text><rect height="22" width="54.095550537109375" y="47" x="0" class="er attributeBoxEven"/><text style="dominant-baseline: middle; font-size: 10.2px;" transform="translate(5,58)" y="0" x="0" id="text-entity-tokens-846c42f8-5486-59dd-b10e-2fc6a80b5c59-attr-2-type" class="er entityLabel">DateTime</text><rect height="22" width="53.93724060058594" y="47" x="54.095550537109375" class="er attributeBoxEven"/><text style="dominant-baseline: middle; font-size: 10.2px;" transform="translate(59.095550537109375,58)" y="0" x="0" id="text-entity-tokens-846c42f8-5486-59dd-b10e-2fc6a80b5c59-attr-2-name" class="er entityLabel">expiresAt</text><rect height="22" width="22.578125" y="47" x="108.03279113769531" class="er attributeBoxEven"/><text style="dominant-baseline: middle; font-size: 10.2px;" transform="translate(113.03279113769531,58)" y="0" x="0" id="text-entity-tokens-846c42f8-5486-59dd-b10e-2fc6a80b5c59-attr-2-comment" class="er entityLabel"/></g><rect height="14" width="55.66796875" y="216.01327514648438" x="172.90736389160156" class="er relationshipLabelBox"/><text style="text-anchor: middle; dominant-baseline: middle; font-size: 12px;" y="223.01327514648438" x="200.74134826660156" id="rel1" class="er relationshipLabel">enum:role</text><rect height="14" width="35.3515625" y="233.7118682861328" x="265.0260314941406" class="er relationshipLabelBox"/><text style="text-anchor: middle; dominant-baseline: middle; font-size: 12px;" y="240.7118682861328" x="282.7018127441406" id="rel2" class="er relationshipLabel">tokens</text><rect height="14" width="29.64453125" y="279.3110046386719" x="446.1016540527344" class="er relationshipLabelBox"/><text style="text-anchor: middle; dominant-baseline: middle; font-size: 12px;" y="286.3110046386719" x="460.9239196777344" id="rel3" class="er relationshipLabel">sends</text><rect height="14" width="37.994140625" y="264.4483337402344" x="515.3438110351562" class="er relationshipLabelBox"/><text style="text-anchor: middle; dominant-baseline: middle; font-size: 12px;" y="271.4483337402344" x="534.3408813476562" id="rel4" class="er relationshipLabel">recives</text><rect height="14" width="37.189453125" y="234.8742218017578" x="575.7700805664062" class="er relationshipLabelBox"/><text style="text-anchor: middle; dominant-baseline: middle; font-size: 12px;" y="241.8742218017578" x="594.3648071289062" id="rel5" class="er relationshipLabel">sender</text><rect height="14" width="38.994140625" y="222.1958465576172" x="627.8209838867188" class="er relationshipLabelBox"/><text style="text-anchor: middle; dominant-baseline: middle; font-size: 12px;" y="229.1958465576172" x="647.3180541992188" id="rel6" class="er relationshipLabel">reciver</text><rect height="14" width="23.958984375" y="270.8196105957031" x="323.0677185058594" class="er relationshipLabelBox"/><text style="text-anchor: middle; dominant-baseline: middle; font-size: 12px;" y="277.8196105957031" x="335.0472106933594" id="rel7" class="er relationshipLabel">user</text></svg>